<svg viewBox="0 0 24 24" xmlns="http://www.w3.org/2000/svg"><g fill="#F33"><circle cx="12" cy="12" r="4"/><path d="M23 11h-1.623a.5.5 0 0 1-.493-.421 9.017 9.017 0 0 0-7.463-7.463.5.5 0 0 1-.421-.493V1a1 1 0 1 0-2 0v1.623a.5.5 0 0 1-.421.493 9.017 9.017 0 0 0-7.463 7.463.5.5 0 0 1-.493.421H1a1 1 0 1 0 0 2h1.623a.5.5 0 0 1 .493.421 9.017 9.017 0 0 0 7.463 7.463.5.5 0 0 1 .421.493V23a1 1 0 1 0 2 0v-1.623a.5.5 0 0 1 .421-.493 9.017 9.017 0 0 0 7.463-7.463.5.5 0 0 1 .493-.421H23a1 1 0 1 0 0-2zm-11 8a7 7 0 1 1 7-7 7.008 7.008 0 0 1-7 7z"/></g></svg>