<svg version="1.1" id="Layer_1" xmlns="http://www.w3.org/2000/svg" x="0" y="0" viewBox="0 0 30 30" style="enable-background:new 0 0 30 30" xml:space="preserve"><style>.st0{fill:#fff}</style><g id="auikl7.tif"><path class="st0" d="M19.2 7.2v-4c0-.2 0-.2-.2-.2h-1.3c-.1 0-.1 0-.1.2v9c0 .1 0 .2.2.2h9.1c.1 0 .2 0 .2-.2v-1.3c0-.2 0-.2-.2-.2h-4.2v-.1l.1-.1 4.1-4.1s.1-.1.1-.2V3.1c-.1 0-.1.1-.1.1l-5.3 5.3-2.1 2.1s-.1 0-.2.1V8.6c0-.1 0-.2.1-.3 1.8-1.7 3.5-3.5 5.3-5.2l.1-.1h-1.1c-.1 0-.2 0-.3.1-1.3 1.3-2.6 2.6-4 3.9l-.2.2zm3.6 12.1h4.1c.2 0 .2 0 .2-.2v-1.3c0-.2 0-.2-.2-.2h-9c-.2 0-.2 0-.2.2v9c0 .1 0 .2.2.2h1.3c.2 0 .2 0 .2-.2v-4.1h.1s0 .1.1.1c1.3 1.4 2.7 2.7 4 4.1.1.1.1.1.2.1h3l-.1-.1-5.6-5.6-1.7-1.7c-.1-.1-.1-.1-.1-.2h2.1c.1 0 .2 0 .3.1 1.8 1.8 3.5 3.6 5.3 5.3l.1.1v-1.1c0-.1 0-.2-.1-.3l-4-4c-.1-.1-.2-.1-.2-.2zM3 26.8l.1-.1c2-1.9 3.9-3.9 5.9-5.8l1.5-1.5c.1-.1.1-.1.2-.1v2.1c0 .1 0 .2-.1.3l-5.2 5.2-.1.1h1.1c.1 0 .2 0 .3-.1l3.9-3.9.1-.1v4c0 .1 0 .2.1.1h1.3c.1 0 .1 0 .1-.1v-9c0-.1 0-.2-.1-.2h-9c-.1 0-.1 0-.1.2v1.3c0 .2 0 .2.2.2h4.1l-.1.1-4.1 4.1c-.1 0-.1 0-.1.1v3.1zm4.1-16.1h-4c-.1 0-.2 0-.2.1v1.3c0 .1 0 .1.1.1h9.1c.1 0 .1 0 .1-.1V3c0-.1 0-.1-.1-.1h-1.3c-.1 0-.2 0-.2.2v4.1l-.1-.1C9.1 5.8 7.8 4.4 6.5 3H3.2l.1.1L9.2 9l1.4 1.4c.1.1.1.1.1.2H8.6c-.1 0-.2 0-.3-.1L3.1 5.3 3 5.2v1.1c0 .1 0 .2.1.3l3.7 3.7c.1.1.2.3.3.4z"/><path class="st0" d="m19.2 7.2.1-.1c1.3-1.3 2.6-2.6 4-3.9.1-.2.2-.2.3-.2h1.1l-.1.1c-1.8 1.7-3.5 3.5-5.3 5.2-.1.1-.1.2-.1.3v2.1c.1 0 .2 0 .2-.1l2.1-2.1 5.3-5.3.1-.1v3.1c0 .1 0 .1-.1.2-1.4 1.4-2.7 2.8-4.1 4.1l-.1.1v.1h4.2c.2 0 .2 0 .2.2v1.3c0 .1 0 .2-.2.2h-9.1c-.1 0-.2 0-.2-.2v-9c0-.1 0-.2.1-.2h1.3c.2 0 .2 0 .2.2V7c.1 0 .1.1.1.2zM22.8 19.3l.1.1 4 4c.1.1.1.2.1.3v1.1l-.1-.1c-1.8-1.8-3.5-3.6-5.3-5.3-.1-.1-.2-.1-.3-.1h-2.1c-.1.1 0 .2.1.2l1.7 1.7 5.6 5.6.1.1h-3c-.1 0-.2 0-.2-.1-1.3-1.4-2.7-2.7-4-4.1 0 0 0-.1-.1-.1h-.1v4.1c0 .2 0 .2-.2.2h-1.3c-.1 0-.2 0-.2-.2v-9c0-.2 0-.2.2-.2h9c.2 0 .2 0 .2.2V19c0 .2 0 .2-.2.2h-3.9c0 .1 0 .1-.1.1zM3 26.8v-3.1c0-.1 0-.2.1-.2l4.1-4.1.1-.1H3.2c-.2 0-.2 0-.2-.2v-1.3c0-.1 0-.2.1-.2h9c.1 0 .1 0 .1.2v9c0 .1 0 .1-.1.1h-1.3c-.1 0-.1 0-.1-.1v-4l-.1.1-3.9 3.9c-.1.2-.2.2-.3.2H5.3l.1-.1 5.2-5.2c.1-.1.1-.2.1-.3v-2.1c-.1 0-.2 0-.2.1L9 20.9l-5.8 5.8c-.1 0-.1.1-.2.1zM7.1 10.7l-.3-.3C5.6 9.1 4.4 7.9 3.1 6.6 3 6.5 3 6.5 3 6.3V5.2l.1.1c1.7 1.8 3.5 3.5 5.2 5.3.1.1.2.1.3.1h2.1c0-.1 0-.2-.1-.2L9.2 9.1 3.3 3.2l-.1-.1h3.1c.1 0 .2 0 .3.1 1.3 1.4 2.7 2.7 4 4.1l.1.1V3.3c0-.1 0-.2.2-.2h1.3c.1 0 .1 0 .1.1v9.1c0 .1 0 .1-.1.1H3.1c-.1 0-.1 0-.1-.1V11c0-.1 0-.1.2-.1H7c0-.2.1-.2.1-.2z"/></g></svg>