<?xml version="1.0" encoding="UTF-8"?>
<svg version="1.1" viewBox="0 0 24 24" xmlns="http://www.w3.org/2000/svg" xmlns:xlink="http://www.w3.org/1999/xlink">

    <symbol id="icon-move">
        <path d="M23.6 11.187l-4-3 5.57032e-08 4.17774e-08c-.441828-.331371-1.06863-.241828-1.4.2 -.129822.173096-.2.38363-.2.6v1.25 0c0 .138071-.111929.25-.25.25h-4 -1.09278e-08c-.138071-6.03528e-09-.25-.111929-.25-.25 0 0 0 0 0 0v-4l3.55271e-15 3.7749e-08c-2.08482e-08-.138071.111929-.25.25-.25h1.25 -4.37114e-08c.552285 2.41411e-08 1-.447715 1-1 9.45784e-09-.21637-.0701779-.426904-.2-.6l-3-4 -1.65317e-08-2.00917e-08c-.363543-.441828-1.01642-.50529-1.45825-.141748 -.0517202.0425562-.0991916.0900276-.141748.141748l-3 4 5.13133e-08-6.84178e-08c-.331371.441828-.241828 1.06863.2 1.4 .173096.129822.38363.2.6.2h1.25 -1.09278e-08c.138071-6.03528e-09.25.111929.25.25v4 0c0 .138071-.111929.25-.25.25h-4 -1.09278e-08c-.138071-6.03528e-09-.25-.111929-.25-.25 0 0 0 0 0 0v-1.25 0c0-.552285-.447715-1-1-1 -.21637 0-.426904.0701779-.6.2l-4 3 -7.79577e-08 5.84683e-08c-.441828.331371-.531371.958172-.2 1.4 .0568543.0758057.124194.143146.2.2l4 3 -7.79577e-08-5.84683e-08c.441828.331371 1.06863.241828 1.4-.2 .129822-.173096.2-.38363.2-.6v-1.25 3.7749e-08c-2.08482e-08-.138071.111929-.25.25-.25h4 -1.09278e-08c.138071-6.03528e-09.25.111929.25.25v4 0c0 .138071-.111929.25-.25.25h-1.25 -4.37114e-08c-.552285 2.41411e-08-1 .447715-1 1 9.45784e-09.21637.0701779.426904.2.6l3 4 5.13133e-08 6.84178e-08c.331371.441828.958172.531371 1.4.2 .0758057-.0568543.143146-.124194.2-.2l3-4 3.52136e-09-4.69515e-09c.331371-.441828.241828-1.06863-.2-1.4 -.173096-.129822-.38363-.2-.6-.2h-1.25 -1.09278e-08c-.138071-6.03528e-09-.25-.111929-.25-.25 0 0 0 0 0 0v-4l3.55271e-15 3.7749e-08c-2.08482e-08-.138071.111929-.25.25-.25h4 -1.09278e-08c.138071-6.03528e-09.25.111929.25.25v1.25l1.06581e-14-1.50996e-07c-8.33927e-08.552285.447715 1 1 1 .21637 3.2671e-08.426904-.0701778.6-.2l4-3 5.57032e-08-4.17774e-08c.441828-.331371.531371-.958172.2-1.4 -.0568543-.0758057-.124194-.143146-.2-.2Z"/>
    </symbol>

    <symbol id="icon-point-add">
        <path d="M9.865,7.23a1.5,1.5,0,0,0,.307-2.8L2.723.708A1.5,1.5,0,0,0,.71,2.721l3.726,7.45a1.5,1.5,0,0,0,2.8-.309h0l.525-2.1Z"/>
        <path d="M15.448,7.446a8,8,0,1,0,8,8A8,8,0,0,0,15.448,7.446Zm3,9H16.7a.25.25,0,0,0-.25.25v1.75a1,1,0,1,1-2,0V16.7a.25.25,0,0,0-.25-.25h-1.75a1,1,0,0,1,0-2H14.2a.25.25,0,0,0,.25-.25v-1.75a1,1,0,1,1,2,0V14.2a.25.25,0,0,0,.25.25h1.75a1,1,0,0,1,0,2Z"/>
    </symbol>

    <symbol id="icon-point-move">
        <path d="M23.162,13.628l-3.087-2.264a.707.707,0,0,0-1.127.568v1.014a.25.25,0,0,1-.25.25H15.2a.25.25,0,0,1-.25-.25v-3.5a.25.25,0,0,1,.25-.25h1.015a.7.7,0,0,0,.566-1.127L14.514,4.98a.732.732,0,0,0-1.133,0L11.119,8.066a.706.706,0,0,0,.565,1.13H12.7a.25.25,0,0,1,.25.25v3.5a.25.25,0,0,1-.25.25H9.2a.25.25,0,0,1-.25-.25V11.932a.705.705,0,0,0-1.125-.568L4.733,13.63a.706.706,0,0,0,0,1.135l3.087,2.263a.705.705,0,0,0,1.126-.567V15.446a.25.25,0,0,1,.25-.25h3.5a.25.25,0,0,1,.25.25v3.5a.25.25,0,0,1-.25.25H11.684a.706.706,0,0,0-.568,1.125l2.266,3.091a.706.706,0,0,0,1.134,0l2.263-3.086a.705.705,0,0,0-.566-1.127H15.2a.25.25,0,0,1-.25-.25v-3.5a.25.25,0,0,1,.25-.25h3.5a.25.25,0,0,1,.25.25v1.015a.706.706,0,0,0,1.126.567l3.09-2.265a.708.708,0,0,0,0-1.135Z"/>
        <path d="M5.386,9.742a1,1,0,0,0,.861-.752h0l.561-2.25a.251.251,0,0,1,.181-.182L9.243,6A1,1,0,0,0,9.448,4.13L2,.405A1,1,0,0,0,.657,1.747L4.383,9.2A1,1,0,0,0,5.386,9.742Z"/>
    </symbol>

    <symbol id="icon-point-remove">
        <path d="M9.865,7.23c0.668,-0.165 1.14,-0.769 1.14,-1.456c0,-0.569 -0.323,-1.091 -0.833,-1.344l-7.449,-3.722c-0.209,-0.104 -0.439,-0.159 -0.672,-0.159c-0.823,0 -1.5,0.677 -1.5,1.5c0,0.233 0.055,0.463 0.159,0.672l3.726,7.45c0.253,0.509 0.775,0.833 1.343,0.833c0.689,-0 1.293,-0.474 1.457,-1.142l0.525,-2.1l2.104,-0.532Z"/>
        <path d="M15.448,7.446c-4.389,0 -8,3.611 -8,8c0,4.389 3.611,8 8,8c4.389,0 8,-3.611 8,-8c0,-4.389 -3.611,-8 -8,-8Zm3,9l-1.748,0c-0.137,0 -2.363,0.004 -2.5,0.004l-1.75,0c-0.549,0 -1,-0.451 -1,-1c0,-0.549 0.451,-1 1,-1l6,0c0.549,0 1,0.451 1,1c0,0.549 -0.451,1 -1,1l-0.002,-0.004Z"/>
    </symbol>

    <symbol id="icon-points">
        <path d="M22.662,9.286,2.1.8A1,1,0,0,0,.8,2.1L9.288,22.659a1,1,0,0,0,1.885-.108l2.491-8.718a.249.249,0,0,1,.172-.171l8.718-2.491a1,1,0,0,0,.108-1.885Z"/>
    </symbol>

    <symbol id="icon-draw">
        <path d="M2.649 16.4l1.26486e-08 1.2612e-08c-.195545-.194979-.512127-.19452-.707106.00102541 -.0668208.0670149-.113251.151617-.133894.243975l-1.414 6.365 -1.11558e-09 4.99944e-09c-.0372154.16678.0133206.341016.134.462l-5.23221e-08-5.14268e-08c.121651.11957.295108.170255.462.135l6.364-1.414 -1.43303e-09 3.1778e-10c.269593-.0597838.439677-.326797.379893-.59639 -.0206352-.0930538-.0674379-.178271-.134893-.24561Z"/>
        <path d="M17.852 7.208l-10.96 10.96 2.14729e-09-2.17609e-09c-.0968348.0981335-.0968348.255866-4.29458e-09.354l1.768 1.768 -1.68464e-08-1.63858e-08c.196798.191417.510202.191417.707 3.27715e-08l10.607-10.607 -1.5304e-08 1.53086e-08c.195191-.19525.195191-.51175 3.0608e-08-.707l-1.768-1.768 -6.74742e-10-6.65813e-10c-.0981335-.0968348-.255866-.0968348-.354 1.33163e-09Z"/>
        <path d="M16.792 5.794l-1.768-1.767 2.09286e-08 2.09223e-08c-.19525-.195191-.51175-.195191-.707-4.18445e-08l-10.607 10.606 2.65405e-08-2.65485e-08c-.195191.19525-.195191.51175-5.30811e-08.707l1.768 1.768 -4.3151e-09-4.25799e-09c.0981335.0968348.255866.0968348.354 8.51599e-09l10.96-10.96 7.90896e-09-8.01504e-09c.0968348-.0981335.0968348-.255866 1.50377e-08-.354Z"/>
        <path d="M22.449 1.552l1.61423e-07 1.61086e-07c-1.56337-1.5601-4.09463-1.5601-5.658-3.22877e-07l-.707.707 2.65405e-08-2.65485e-08c-.195191.19525-.195191.51175-5.30811e-08.707l4.95 4.949 4.60076e-09 4.37476e-09c.198046.188318.508954.188318.707-8.74952e-09l.708-.707 4.82689e-08-4.82835e-08c1.56153-1.562 1.56153-4.094-2.36728e-07-5.656Z"/>
    </symbol>

    <symbol id="icon-reload">
        <path d="M10.664 20.073l2.96092e-08 6.13481e-09c-.67572-.140004-1.337.29428-1.477.97 -.140004.67572.29428 1.337.97 1.477l-8.5324e-07-1.76004e-07c5.80869 1.1982 11.4889-2.53934 12.6871-8.34803 1.1982-5.80869-2.53934-11.4889-8.34803-12.6871 -5.80869-1.1982-11.4889 2.53934-12.6871 8.34803 -.433424 2.10117-.227566 4.284.591035 6.2671l-1.70244e-09-4.03045e-09c.0453462.107355.0105012.231802-.084.3l-1 .726 6.61738e-08-4.80183e-08c-.447.32436-.546418.949671-.222058 1.39667 .144758.199491.358092.338493.599058.390329l3.946.849 -1.42074e-08-2.93856e-09c.0690953.0142912.139443.0216609.21.022l-5.84578e-08-1.7458e-11c.471469.00014081.878992-.329044.978-.79l.945-4.4 -1.98927e-08 9.22718e-08c.116392-.539881-.226914-1.0719-.766794-1.18829 -.277894-.0599106-.568152.00128502-.798205.168287l-1.361.989 9.20054e-09-6.70364e-09c-.111592.0813074-.267968.056757-.349275-.054835 -.0161787-.0222047-.0285866-.0469244-.0367249-.073165l-3.38151e-07-1.09344e-06c-1.34698-4.35559 1.09197-8.97843 5.44755-10.3254 4.35559-1.34698 8.97843 1.09197 10.3254 5.44755 1.34698 4.35559-1.09197 8.97843-5.44755 10.3254 -1.3348.412793-2.75254.480042-4.12042.195448Z"/>
    </symbol>

    <symbol id="icon-save">
        <path d="M22 3.775l6.33257e-08-8.25733e-06c.00461987-.602617-.343357-1.15234-.890007-1.406l-1.45264e-06-6.38144e-07c-2.87013-1.26084-5.97526-1.89789-9.10999-1.869l-5.53718e-07-5.10343e-09c-3.13473-.0288917-6.23987.608155-9.11 1.869l1.01021e-07-4.68765e-08c-.546651.25366-.894628.803383-.890005 1.406v7.637l-1.83048e-07.000112709c-.00821423 5.07211 3.10155 9.62782 7.82811 11.4679l1.067.414 2.7173e-08 1.05107e-08c.710999.275018 1.499.275018 2.21-2.10213e-08l1.067-.414 -6.95137e-07 2.70641e-07c4.72651-1.8402 7.83619-6.39595 7.8279-11.468Zm-3.492 4.464l-6.035 8.232 2.7022e-08-3.68115e-08c-.215644.293767-.548665.478901-.912.507 -.033 0-.065 0-.1 0l3.21468e-09-1.66978e-13c-.331732 1.69901e-05-.649821-.13204-.884-.367l-4.577-4.575 -5.63578e-08-5.83843e-08c-.479459-.496699-.465483-1.28803.0312166-1.76749 .484537-.467719 1.25251-.467501 1.73679.000492913l3.341 3.342 -1.62933e-08-1.63546e-08c.0974475.0978143.255738.0981117.353553.000664236 .00924352-.00920886.0177519-.0191272.0254472-.0296642l5-6.821 1.68762e-08-2.37182e-08c.400233-.562499 1.18068-.694041 1.74318-.293807 .562499.400233.694041 1.18068.293807 1.74318 -.00685952.00964056-.0138556.0191832-.0209861.0286252Z"/>
    </symbol>

    <symbol id="icon-layercalc">
        <path d="M23,14a1,1,0,0,0-1,1v.5a.5.5,0,0,1-.5.5H21a1,1,0,0,0,0,2h1a2,2,0,0,0,2-2V15A1,1,0,0,0,23,14Z"/>
        <path d="M22,0H21a1,1,0,0,0,0,2h.5a.5.5,0,0,1,.5.5V3a1,1,0,0,0,2,0V2A2,2,0,0,0,22,0Z"/>
        <path d="M7,4A1,1,0,0,0,8,3V2.5A.5.5,0,0,1,8.5,2H9A1,1,0,0,0,9,0H8A2,2,0,0,0,6,2V3A1,1,0,0,0,7,4Z"/>
        <path d="M23,7a1,1,0,0,0-1,1v2a1,1,0,0,0,2,0V8A1,1,0,0,0,23,7Z"/>
        <path d="M16,0H14a1,1,0,0,0,0,2h2a1,1,0,0,0,0-2Z"/>
        <path d="M8,18H9a1,1,0,0,0,0-2H8.5a.5.5,0,0,1-.5-.5V15a1,1,0,0,0-2,0v1A2,2,0,0,0,8,18Z"/>
        <path d="M7,11a1,1,0,0,0,1-1V8A1,1,0,0,0,6,8v2A1,1,0,0,0,7,11Z"/>
        <path d="M16,16H14a1,1,0,0,0,0,2h2a1,1,0,0,0,0-2Z"/>
        <path d="M16,22H2.5a.5.5,0,0,1-.5-.5V8A1,1,0,0,0,0,8V22a2,2,0,0,0,2,2H16a1,1,0,0,0,0-2Z"/>
    </symbol>

    <symbol id="icon-search">
        <path d="M23.414,20.591l-4.645-4.645a10.256,10.256,0,1,0-2.828,2.829l4.645,4.644a2.025,2.025,0,0,0,2.828,0A2,2,0,0,0,23.414,20.591ZM10.25,3.005A7.25,7.25,0,1,1,3,10.255,7.258,7.258,0,0,1,10.25,3.005Z"/>
    </symbol>

    <symbol id="icon-filter">
        <path d="M20.59,9.328a6.057,6.057,0,0,0,.91-2.919V4.159c0-1.246-2.515-4.066-10-4.066S1.5,2.91,1.5,4.159v2.25a6.024,6.024,0,0,0,1.562,3.767L9.5,16.616v5.793a1.5,1.5,0,0,0,1.5,1.5h1a1.5,1.5,0,0,0,1.5-1.5V19.893A6.481,6.481,0,0,0,20.59,9.328ZM11.5,2.093c4.963,0,8,1.559,8,2.407s-3.037,2.409-8,2.409S3.5,5.35,3.5,4.5,6.537,2.093,11.5,2.093ZM16,18.409a4.53,4.53,0,0,1-2.374-.677.251.251,0,0,1-.126-.217v-.8a.251.251,0,0,1,.073-.177l5.5-5.5a.251.251,0,0,1,.369.016A4.45,4.45,0,0,1,20.5,13.909,4.505,4.505,0,0,1,16,18.409Z"/>
    </symbol>

</svg>
