<?xml version="1.0" encoding="UTF-8"?>
<svg version="1.1" viewBox="0 0 24 24" xmlns="http://www.w3.org/2000/svg" xmlns:xlink="http://www.w3.org/1999/xlink">

    <symbol id="icon-move">
        <path d="M23.6 11.187l-4-3 5.57032e-08 4.17774e-08c-.441828-.331371-1.06863-.241828-1.4.2 -.129822.173096-.2.38363-.2.6v1.25 0c0 .138071-.111929.25-.25.25h-4 -1.09278e-08c-.138071-6.03528e-09-.25-.111929-.25-.25 0 0 0 0 0 0v-4l3.55271e-15 3.7749e-08c-2.08482e-08-.138071.111929-.25.25-.25h1.25 -4.37114e-08c.552285 2.41411e-08 1-.447715 1-1 9.45784e-09-.21637-.0701779-.426904-.2-.6l-3-4 -1.65317e-08-2.00917e-08c-.363543-.441828-1.01642-.50529-1.45825-.141748 -.0517202.0425562-.0991916.0900276-.141748.141748l-3 4 5.13133e-08-6.84178e-08c-.331371.441828-.241828 1.06863.2 1.4 .173096.129822.38363.2.6.2h1.25 -1.09278e-08c.138071-6.03528e-09.25.111929.25.25v4 0c0 .138071-.111929.25-.25.25h-4 -1.09278e-08c-.138071-6.03528e-09-.25-.111929-.25-.25 0 0 0 0 0 0v-1.25 0c0-.552285-.447715-1-1-1 -.21637 0-.426904.0701779-.6.2l-4 3 -7.79577e-08 5.84683e-08c-.441828.331371-.531371.958172-.2 1.4 .0568543.0758057.124194.143146.2.2l4 3 -7.79577e-08-5.84683e-08c.441828.331371 1.06863.241828 1.4-.2 .129822-.173096.2-.38363.2-.6v-1.25 3.7749e-08c-2.08482e-08-.138071.111929-.25.25-.25h4 -1.09278e-08c.138071-6.03528e-09.25.111929.25.25v4 0c0 .138071-.111929.25-.25.25h-1.25 -4.37114e-08c-.552285 2.41411e-08-1 .447715-1 1 9.45784e-09.21637.0701779.426904.2.6l3 4 5.13133e-08 6.84178e-08c.331371.441828.958172.531371 1.4.2 .0758057-.0568543.143146-.124194.2-.2l3-4 3.52136e-09-4.69515e-09c.331371-.441828.241828-1.06863-.2-1.4 -.173096-.129822-.38363-.2-.6-.2h-1.25 -1.09278e-08c-.138071-6.03528e-09-.25-.111929-.25-.25 0 0 0 0 0 0v-4l3.55271e-15 3.7749e-08c-2.08482e-08-.138071.111929-.25.25-.25h4 -1.09278e-08c.138071-6.03528e-09.25.111929.25.25v1.25l1.06581e-14-1.50996e-07c-8.33927e-08.552285.447715 1 1 1 .21637 3.2671e-08.426904-.0701778.6-.2l4-3 5.57032e-08-4.17774e-08c.441828-.331371.531371-.958172.2-1.4 -.0568543-.0758057-.124194-.143146-.2-.2Z"/>
    </symbol>

    <symbol id="icon-point-add">
        <path d="M9.865,7.23a1.5,1.5,0,0,0,.307-2.8L2.723.708A1.5,1.5,0,0,0,.71,2.721l3.726,7.45a1.5,1.5,0,0,0,2.8-.309h0l.525-2.1Z"/>
        <path d="M15.448,7.446a8,8,0,1,0,8,8A8,8,0,0,0,15.448,7.446Zm3,9H16.7a.25.25,0,0,0-.25.25v1.75a1,1,0,1,1-2,0V16.7a.25.25,0,0,0-.25-.25h-1.75a1,1,0,0,1,0-2H14.2a.25.25,0,0,0,.25-.25v-1.75a1,1,0,1,1,2,0V14.2a.25.25,0,0,0,.25.25h1.75a1,1,0,0,1,0,2Z"/>
    </symbol>

    <symbol id="icon-point-move">
        <path d="M23.162,13.628l-3.087-2.264a.707.707,0,0,0-1.127.568v1.014a.25.25,0,0,1-.25.25H15.2a.25.25,0,0,1-.25-.25v-3.5a.25.25,0,0,1,.25-.25h1.015a.7.7,0,0,0,.566-1.127L14.514,4.98a.732.732,0,0,0-1.133,0L11.119,8.066a.706.706,0,0,0,.565,1.13H12.7a.25.25,0,0,1,.25.25v3.5a.25.25,0,0,1-.25.25H9.2a.25.25,0,0,1-.25-.25V11.932a.705.705,0,0,0-1.125-.568L4.733,13.63a.706.706,0,0,0,0,1.135l3.087,2.263a.705.705,0,0,0,1.126-.567V15.446a.25.25,0,0,1,.25-.25h3.5a.25.25,0,0,1,.25.25v3.5a.25.25,0,0,1-.25.25H11.684a.706.706,0,0,0-.568,1.125l2.266,3.091a.706.706,0,0,0,1.134,0l2.263-3.086a.705.705,0,0,0-.566-1.127H15.2a.25.25,0,0,1-.25-.25v-3.5a.25.25,0,0,1,.25-.25h3.5a.25.25,0,0,1,.25.25v1.015a.706.706,0,0,0,1.126.567l3.09-2.265a.708.708,0,0,0,0-1.135Z"/>
        <path d="M5.386,9.742a1,1,0,0,0,.861-.752h0l.561-2.25a.251.251,0,0,1,.181-.182L9.243,6A1,1,0,0,0,9.448,4.13L2,.405A1,1,0,0,0,.657,1.747L4.383,9.2A1,1,0,0,0,5.386,9.742Z"/>
    </symbol>

    <symbol id="icon-point-remove">
        <path d="M9.865,7.23c0.668,-0.165 1.14,-0.769 1.14,-1.456c0,-0.569 -0.323,-1.091 -0.833,-1.344l-7.449,-3.722c-0.209,-0.104 -0.439,-0.159 -0.672,-0.159c-0.823,0 -1.5,0.677 -1.5,1.5c0,0.233 0.055,0.463 0.159,0.672l3.726,7.45c0.253,0.509 0.775,0.833 1.343,0.833c0.689,-0 1.293,-0.474 1.457,-1.142l0.525,-2.1l2.104,-0.532Z"/>
        <path d="M15.448,7.446c-4.389,0 -8,3.611 -8,8c0,4.389 3.611,8 8,8c4.389,0 8,-3.611 8,-8c0,-4.389 -3.611,-8 -8,-8Zm3,9l-1.748,0c-0.137,0 -2.363,0.004 -2.5,0.004l-1.75,0c-0.549,0 -1,-0.451 -1,-1c0,-0.549 0.451,-1 1,-1l6,0c0.549,0 1,0.451 1,1c0,0.549 -0.451,1 -1,1l-0.002,-0.004Z"/>
    </symbol>

    <symbol id="icon-points">
        <path d="M22.662,9.286,2.1.8A1,1,0,0,0,.8,2.1L9.288,22.659a1,1,0,0,0,1.885-.108l2.491-8.718a.249.249,0,0,1,.172-.171l8.718-2.491a1,1,0,0,0,.108-1.885Z"/>
    </symbol>

    <symbol id="icon-draw">
        <path d="M2.649 16.4l1.26486e-08 1.2612e-08c-.195545-.194979-.512127-.19452-.707106.00102541 -.0668208.0670149-.113251.151617-.133894.243975l-1.414 6.365 -1.11558e-09 4.99944e-09c-.0372154.16678.0133206.341016.134.462l-5.23221e-08-5.14268e-08c.121651.11957.295108.170255.462.135l6.364-1.414 -1.43303e-09 3.1778e-10c.269593-.0597838.439677-.326797.379893-.59639 -.0206352-.0930538-.0674379-.178271-.134893-.24561Z"/>
        <path d="M17.852 7.208l-10.96 10.96 2.14729e-09-2.17609e-09c-.0968348.0981335-.0968348.255866-4.29458e-09.354l1.768 1.768 -1.68464e-08-1.63858e-08c.196798.191417.510202.191417.707 3.27715e-08l10.607-10.607 -1.5304e-08 1.53086e-08c.195191-.19525.195191-.51175 3.0608e-08-.707l-1.768-1.768 -6.74742e-10-6.65813e-10c-.0981335-.0968348-.255866-.0968348-.354 1.33163e-09Z"/>
        <path d="M16.792 5.794l-1.768-1.767 2.09286e-08 2.09223e-08c-.19525-.195191-.51175-.195191-.707-4.18445e-08l-10.607 10.606 2.65405e-08-2.65485e-08c-.195191.19525-.195191.51175-5.30811e-08.707l1.768 1.768 -4.3151e-09-4.25799e-09c.0981335.0968348.255866.0968348.354 8.51599e-09l10.96-10.96 7.90896e-09-8.01504e-09c.0968348-.0981335.0968348-.255866 1.50377e-08-.354Z"/>
        <path d="M22.449 1.552l1.61423e-07 1.61086e-07c-1.56337-1.5601-4.09463-1.5601-5.658-3.22877e-07l-.707.707 2.65405e-08-2.65485e-08c-.195191.19525-.195191.51175-5.30811e-08.707l4.95 4.949 4.60076e-09 4.37476e-09c.198046.188318.508954.188318.707-8.74952e-09l.708-.707 4.82689e-08-4.82835e-08c1.56153-1.562 1.56153-4.094-2.36728e-07-5.656Z"/>
    </symbol>

    <symbol id="icon-reload">
        <path d="M10.664 20.073l2.96092e-08 6.13481e-09c-.67572-.140004-1.337.29428-1.477.97 -.140004.67572.29428 1.337.97 1.477l-8.5324e-07-1.76004e-07c5.80869 1.1982 11.4889-2.53934 12.6871-8.34803 1.1982-5.80869-2.53934-11.4889-8.34803-12.6871 -5.80869-1.1982-11.4889 2.53934-12.6871 8.34803 -.433424 2.10117-.227566 4.284.591035 6.2671l-1.70244e-09-4.03045e-09c.0453462.107355.0105012.231802-.084.3l-1 .726 6.61738e-08-4.80183e-08c-.447.32436-.546418.949671-.222058 1.39667 .144758.199491.358092.338493.599058.390329l3.946.849 -1.42074e-08-2.93856e-09c.0690953.0142912.139443.0216609.21.022l-5.84578e-08-1.7458e-11c.471469.00014081.878992-.329044.978-.79l.945-4.4 -1.98927e-08 9.22718e-08c.116392-.539881-.226914-1.0719-.766794-1.18829 -.277894-.0599106-.568152.00128502-.798205.168287l-1.361.989 9.20054e-09-6.70364e-09c-.111592.0813074-.267968.056757-.349275-.054835 -.0161787-.0222047-.0285866-.0469244-.0367249-.073165l-3.38151e-07-1.09344e-06c-1.34698-4.35559 1.09197-8.97843 5.44755-10.3254 4.35559-1.34698 8.97843 1.09197 10.3254 5.44755 1.34698 4.35559-1.09197 8.97843-5.44755 10.3254 -1.3348.412793-2.75254.480042-4.12042.195448Z"/>
    </symbol>

    <symbol id="icon-save">
        <path d="M22 3.775l6.33257e-08-8.25733e-06c.00461987-.602617-.343357-1.15234-.890007-1.406l-1.45264e-06-6.38144e-07c-2.87013-1.26084-5.97526-1.89789-9.10999-1.869l-5.53718e-07-5.10343e-09c-3.13473-.0288917-6.23987.608155-9.11 1.869l1.01021e-07-4.68765e-08c-.546651.25366-.894628.803383-.890005 1.406v7.637l-1.83048e-07.000112709c-.00821423 5.07211 3.10155 9.62782 7.82811 11.4679l1.067.414 2.7173e-08 1.05107e-08c.710999.275018 1.499.275018 2.21-2.10213e-08l1.067-.414 -6.95137e-07 2.70641e-07c4.72651-1.8402 7.83619-6.39595 7.8279-11.468Zm-3.492 4.464l-6.035 8.232 2.7022e-08-3.68115e-08c-.215644.293767-.548665.478901-.912.507 -.033 0-.065 0-.1 0l3.21468e-09-1.66978e-13c-.331732 1.69901e-05-.649821-.13204-.884-.367l-4.577-4.575 -5.63578e-08-5.83843e-08c-.479459-.496699-.465483-1.28803.0312166-1.76749 .484537-.467719 1.25251-.467501 1.73679.000492913l3.341 3.342 -1.62933e-08-1.63546e-08c.0974475.0978143.255738.0981117.353553.000664236 .00924352-.00920886.0177519-.0191272.0254472-.0296642l5-6.821 1.68762e-08-2.37182e-08c.400233-.562499 1.18068-.694041 1.74318-.293807 .562499.400233.694041 1.18068.293807 1.74318 -.00685952.00964056-.0138556.0191832-.0209861.0286252Z"/>
    </symbol>

    <symbol id="icon-layercalc">
        <path d="M23,14a1,1,0,0,0-1,1v.5a.5.5,0,0,1-.5.5H21a1,1,0,0,0,0,2h1a2,2,0,0,0,2-2V15A1,1,0,0,0,23,14Z"/>
        <path d="M22,0H21a1,1,0,0,0,0,2h.5a.5.5,0,0,1,.5.5V3a1,1,0,0,0,2,0V2A2,2,0,0,0,22,0Z"/>
        <path d="M7,4A1,1,0,0,0,8,3V2.5A.5.5,0,0,1,8.5,2H9A1,1,0,0,0,9,0H8A2,2,0,0,0,6,2V3A1,1,0,0,0,7,4Z"/>
        <path d="M23,7a1,1,0,0,0-1,1v2a1,1,0,0,0,2,0V8A1,1,0,0,0,23,7Z"/>
        <path d="M16,0H14a1,1,0,0,0,0,2h2a1,1,0,0,0,0-2Z"/>
        <path d="M8,18H9a1,1,0,0,0,0-2H8.5a.5.5,0,0,1-.5-.5V15a1,1,0,0,0-2,0v1A2,2,0,0,0,8,18Z"/>
        <path d="M7,11a1,1,0,0,0,1-1V8A1,1,0,0,0,6,8v2A1,1,0,0,0,7,11Z"/>
        <path d="M16,16H14a1,1,0,0,0,0,2h2a1,1,0,0,0,0-2Z"/>
        <path d="M16,22H2.5a.5.5,0,0,1-.5-.5V8A1,1,0,0,0,0,8V22a2,2,0,0,0,2,2H16a1,1,0,0,0,0-2Z"/>
    </symbol>

    <symbol id="icon-search">
        <path d="M23.414,20.591l-4.645-4.645a10.256,10.256,0,1,0-2.828,2.829l4.645,4.644a2.025,2.025,0,0,0,2.828,0A2,2,0,0,0,23.414,20.591ZM10.25,3.005A7.25,7.25,0,1,1,3,10.255,7.258,7.258,0,0,1,10.25,3.005Z"/>
    </symbol>

    <symbol id="icon-filter">
        <path d="M20.59,9.328a6.057,6.057,0,0,0,.91-2.919V4.159c0-1.246-2.515-4.066-10-4.066S1.5,2.91,1.5,4.159v2.25a6.024,6.024,0,0,0,1.562,3.767L9.5,16.616v5.793a1.5,1.5,0,0,0,1.5,1.5h1a1.5,1.5,0,0,0,1.5-1.5V19.893A6.481,6.481,0,0,0,20.59,9.328ZM11.5,2.093c4.963,0,8,1.559,8,2.407s-3.037,2.409-8,2.409S3.5,5.35,3.5,4.5,6.537,2.093,11.5,2.093ZM16,18.409a4.53,4.53,0,0,1-2.374-.677.251.251,0,0,1-.126-.217v-.8a.251.251,0,0,1,.073-.177l5.5-5.5a.251.251,0,0,1,.369.016A4.45,4.45,0,0,1,20.5,13.909,4.505,4.505,0,0,1,16,18.409Z"/>
    </symbol>

    <symbol id="layers">
        <path d="M1.155,7.4l9.649,4.2a3.008,3.008,0,0,0,2.392,0L22.845,7.4a1.5,1.5,0,0,0,0-2.751L13.2.452a3.009,3.009,0,0,0-2.392,0L1.157,4.646a1.5,1.5,0,0,0,0,2.752Z"/>
        <path d="M22.844,10.648,21.6,10.106a1.006,1.006,0,0,0-.8,0L12,13.933,3.2,10.106a1.006,1.006,0,0,0-.8,0l-1.244.541a1.5,1.5,0,0,0,0,2.752L10.8,17.593a3.008,3.008,0,0,0,2.392,0L22.841,13.4a1.5,1.5,0,0,0,0-2.752Z"/>
        <path d="M22.844,16.6,21.6,16.061a1,1,0,0,0-.8,0L12,19.888,3.2,16.061a1,1,0,0,0-.8,0l-1.244.54a1.5,1.5,0,0,0,0,2.752L10.8,23.548a3.008,3.008,0,0,0,2.392,0l9.645-4.193a1.5,1.5,0,0,0,0-2.753Z"/>
    </symbol>

    <symbol id="layeraction-remove-map">
        <path d="M18.381,12.762c-3.083,-0 -5.619,2.536 -5.619,5.619c-0,3.082 2.536,5.619 5.619,5.619c3.082,0 5.619,-2.537 5.619,-5.619c-0.004,-3.081 -2.538,-5.615 -5.619,-5.619Zm1.069,5.772l1.223,1.222c0.111,0.12 0.174,0.278 0.174,0.442c-0,0.356 -0.293,0.649 -0.649,0.649c-0.164,-0 -0.322,-0.063 -0.442,-0.174l-1.222,-1.222c-0.041,-0.04 -0.096,-0.063 -0.153,-0.063c-0.057,-0 -0.113,0.023 -0.153,0.063l-1.222,1.223c-0.122,0.122 -0.287,0.19 -0.459,0.19c-0.356,0 -0.649,-0.292 -0.649,-0.648c0,-0.172 0.069,-0.337 0.19,-0.459l1.223,-1.222c0.04,-0.041 0.063,-0.096 0.063,-0.153c0,-0.058 -0.023,-0.113 -0.063,-0.153l-1.222,-1.223c-0.126,-0.122 -0.198,-0.29 -0.198,-0.466c0,-0.356 0.293,-0.648 0.648,-0.648c0.176,-0 0.344,0.071 0.467,0.197l1.222,1.223c0.084,0.084 0.222,0.084 0.306,0l1.222,-1.223c0.122,-0.121 0.287,-0.19 0.459,-0.19c0.356,0 0.648,0.293 0.648,0.649c0,0.172 -0.068,0.337 -0.189,0.458l-1.223,1.223c-0.084,0.084 -0.084,0.222 -0.001,0.306l0,-0.001Z"/>
        <path d="M11.142,21.663l-1.81,1.331c-0.507,0.338 -1.172,0.336 -1.676,-0.007l-7,-4.761c-0.41,-0.279 -0.656,-0.745 -0.656,-1.241l-0,-14.736c-0,-0.823 0.677,-1.5 1.5,-1.5c0.319,-0 0.63,0.101 0.887,0.29l5.837,4.27c0.176,0.129 0.416,0.129 0.592,0l5.832,-4.29l0.019,-0.013c0.507,-0.341 1.173,-0.338 1.677,0.007l7,4.761c0.41,0.279 0.656,0.745 0.656,1.241l0,5.749c-0.584,-0.584 -1.258,-1.078 -2,-1.458l0,-3.762c0,-0.166 -0.082,-0.321 -0.219,-0.414l-4.89,-3.326c-0.077,-0.052 -0.176,-0.057 -0.258,-0.014c-0.082,0.043 -0.133,0.128 -0.133,0.221l0,6.648c-0.708,0.172 -1.38,0.439 -2,0.787l0,-7.407c0,-0.137 -0.113,-0.25 -0.25,-0.25c-0.054,0 -0.107,0.018 -0.15,0.05l-4.4,3.291c-0.126,0.094 -0.2,0.243 -0.2,0.4l0,12.432c0,0.137 0.113,0.25 0.25,0.25c0.054,-0 0.107,-0.018 0.15,-0.05l0.641,-0.479c0.114,0.694 0.319,1.358 0.601,1.98Zm-9.233,-18.093c0,-0.137 0.113,-0.25 0.25,-0.25c0.054,-0 0.107,0.017 0.15,0.05l4.9,3.58c0.128,0.093 0.205,12.882 0.205,12.882c0.001,0.092 -0.051,0.178 -0.133,0.221c-0.082,0.043 -0.181,0.037 -0.258,-0.014l-4.89,-3.327c-0.138,-0.092 -0.224,-13.142 -0.224,-13.142Z"/>
    </symbol>

    <symbol id="layeraction-totop">
        <path d="M15,17a2,2,0,0,0,2-2V2a2,2,0,0,0-2-2H2A2,2,0,0,0,0,2V15a2,2,0,0,0,2,2ZM2,2.5A.5.5,0,0,1,2.5,2h12a.5.5,0,0,1,.5.5v12a.5.5,0,0,1-.5.5H2.5a.5.5,0,0,1-.5-.5Z"/>
        <path d="M24,9.5A2.5,2.5,0,0,0,21.5,7H19.675a1.023,1.023,0,0,0-1.175.985V16.5a2,2,0,0,1-2,2H8a1,1,0,0,0-1,1v2A2.5,2.5,0,0,0,9.5,24h12A2.5,2.5,0,0,0,24,21.5Z"/>
    </symbol>

    <symbol id="layeraction-center">
        <circle cx="12" cy="12" r="4"/>
        <path d="M23,11H21.377a.5.5,0,0,1-.493-.421,9.017,9.017,0,0,0-7.463-7.463A.5.5,0,0,1,13,2.623V1a1,1,0,0,0-2,0V2.623a.5.5,0,0,1-.421.493,9.017,9.017,0,0,0-7.463,7.463A.5.5,0,0,1,2.623,11H1a1,1,0,0,0,0,2H2.623a.5.5,0,0,1,.493.421,9.017,9.017,0,0,0,7.463,7.463.5.5,0,0,1,.421.493V23a1,1,0,0,0,2,0V21.377a.5.5,0,0,1,.421-.493,9.017,9.017,0,0,0,7.463-7.463A.5.5,0,0,1,21.377,13H23a1,1,0,0,0,0-2ZM12,19a7,7,0,1,1,7-7A7.008,7.008,0,0,1,12,19Z"/>
    </symbol>

    <symbol id="layeraction-showoriginal">
        <path d="M10.824,19.868a1,1,0,0,0-1.394-.233L9.4,19.66a.25.25,0,0,1-.395-.2V6.657a.5.5,0,0,1,.209-.407l4.4-3.139a.25.25,0,0,1,.395.2V9a1,1,0,0,0,2,0V3.314a.25.25,0,0,1,.395-.2l4.4,3.139A.5.5,0,0,1,21,6.657v4.479a1,1,0,0,0,2,0V6.143a1.506,1.506,0,0,0-.628-1.221L15.872.279a1.5,1.5,0,0,0-1.744,0l-5.8,4.145a.5.5,0,0,1-.6-.011L2.427.321A1.5,1.5,0,0,0,0,1.5V16.386a1.505,1.505,0,0,0,.6,1.2l6.506,4.882a1.5,1.5,0,0,0,1.772.019l1.713-1.223A1,1,0,0,0,10.824,19.868ZM2,3.027a.25.25,0,0,1,.4-.2l4.4,3.4a.5.5,0,0,1,.2.4V19.386a.25.25,0,0,1-.4.2l-4.4-3.3a.5.5,0,0,1-.2-.4Z"/>
        <path d="M23.707,23.707a1,1,0,0,0,0-1.414L21.313,19.9a.5.5,0,0,1-.077-.608,5.509,5.509,0,1,0-1.946,1.946.5.5,0,0,1,.608.076l2.395,2.395a1,1,0,0,0,1.414,0ZM13,16.5A3.5,3.5,0,1,1,16.5,20,3.5,3.5,0,0,1,13,16.5Z"/>
    </symbol>

    <symbol id="layeraction-export">
        <path d="M6.5,11A6.5,6.5,0,1,0,13,17.5,6.508,6.508,0,0,0,6.5,11Zm2.391,7.312-2,2.5a.517.517,0,0,1-.782,0l-2-2.5A.5.5,0,0,1,4.5,17.5h.876A.125.125,0,0,0,5.5,17.38V14.5a1,1,0,1,1,2,0v2.875a.127.127,0,0,0,.124.125H8.5a.5.5,0,0,1,.391.812Z"/>
        <path d="M14.679,12.2l.018-.017a.751.751,0,0,0,.018-1.043L12.686,8.966a.249.249,0,0,1,0-.341l2.028-2.174a.75.75,0,0,0-1.078-1.043l-.018.019L10.952,8.283a.752.752,0,0,0,0,1.025l2.666,2.857A.752.752,0,0,0,14.679,12.2Z"/>
        <path d="M16.286,11.14a.75.75,0,0,0,1.078,1.043l.018-.018,2.666-2.857a.752.752,0,0,0,0-1.025L17.382,5.427a.751.751,0,0,0-1.061-.036.731.731,0,0,0-.036,1.06l2.029,2.174a.249.249,0,0,1,0,.341Z"/>
        <path d="M23.414,3,21,.587A2,2,0,0,0,19.586,0H8A2,2,0,0,0,6,2V9.214a.248.248,0,0,0,.242.25c.366.006,1.038.033,1.485.082A.246.246,0,0,0,8,9.3V2.5A.5.5,0,0,1,8.5,2H19.379a.5.5,0,0,1,.353.146l2.122,2.121A.5.5,0,0,1,22,4.622V18a.5.5,0,0,1-.5.5H14.631a.244.244,0,0,0-.241.208,7.983,7.983,0,0,1-.373,1.459.243.243,0,0,0,.228.332H22a2,2,0,0,0,2-2V4.415A2,2,0,0,0,23.414,3Z"/>
    </symbol>

    <symbol id="dropzone-upload">
        <path d="M10.5 23h-9c-.2 0-.5-.2-.5-.5v-21c0-.3.3-.5.5-.5h13.3c.1 0 .3.1.4.2l3.7 3.7c.1 0 .1.2.1.3v3.3c0 .3.3.5.5.5s.5-.2.5-.5V5.2c0-.4-.2-.8-.4-1.1L15.9.4c-.3-.2-.7-.4-1.1-.4H1.5C.7 0 0 .7 0 1.5v21c0 .8.7 1.5 1.5 1.5h9c.3 0 .5-.2.5-.5s-.2-.5-.5-.5z"/>
        <path d="M6.9 6.7c-.2-.2-.5-.2-.7 0l-3 3c-.2.1-.2.5 0 .7l3 3c.1.1.2.1.4.1s.3 0 .4-.1c.2-.2.2-.5 0-.7L4.2 10l2.6-2.6c.3-.2.3-.6.1-.7zM9.2 13.4c.1.1.2.1.4.1s.3 0 .4-.1l3-3c.2-.2.2-.5 0-.7l-3-3c-.2-.2-.5-.2-.7 0s-.3.5-.1.7l2.6 2.6-2.6 2.6c-.2.2-.2.6 0 .8zM17.5 11C14 11 11 13.9 11 17.5s3 6.5 6.5 6.5 6.5-2.9 6.5-6.5-2.9-6.5-6.5-6.5zm0 12c-3 0-5.5-2.5-5.5-5.5s2.5-5.5 5.5-5.5 5.5 2.5 5.5 5.5-2.4 5.5-5.5 5.5z"/>
        <path d="M17.9 14.2s-.1-.1-.2-.1c-.1-.1-.3-.1-.4 0-.1 0-.1.1-.2.1l-2.2 2.2c-.2.2-.2.5 0 .7.1.1.2.1.4.1s.3 0 .4-.1l1.4-1.4v4.8c0 .3.2.5.5.5s.5-.2.5-.5v-4.8l1.4 1.4c.1.1.2.1.4.1s.3 0 .4-.1c.2-.2.2-.5 0-.7l-2.4-2.2z"/>
    </symbol>

    <symbol id="layermanagement-upload">
        <path d="M17.238,10.504C13.513,10.504 10.488,13.529 10.488,17.254C10.488,20.979 13.513,24.004 17.238,24.004C20.963,24.004 23.988,20.979 23.988,17.254C23.988,13.529 20.963,10.504 17.238,10.504ZM17.238,12.004C20.136,12.004 22.488,14.356 22.488,17.254C22.488,20.152 20.136,22.504 17.238,22.504C14.34,22.504 11.988,20.152 11.988,17.254C11.988,14.356 14.34,12.004 17.238,12.004ZM16.952,13.561L16.95,13.561C16.932,13.569 16.915,13.577 16.897,13.586L16.872,13.599L16.843,13.616L16.814,13.635L16.787,13.655L16.761,13.675L16.736,13.697L16.711,13.72L16.708,13.724L14.458,15.974C14.165,16.266 14.165,16.742 14.458,17.034C14.75,17.327 15.226,17.327 15.518,17.034L16.488,16.065L16.488,20.254C16.488,20.668 16.824,21.004 17.238,21.004C17.652,21.004 17.988,20.668 17.988,20.254L17.988,16.065L18.958,17.034C19.25,17.327 19.726,17.327 20.018,17.034C20.311,16.742 20.311,16.266 20.018,15.974L17.768,13.724L17.767,13.723C17.696,13.652 17.614,13.598 17.526,13.561L17.524,13.561C17.436,13.524 17.339,13.504 17.238,13.504C17.137,13.504 17.04,13.524 16.952,13.561ZM8.238,19.504L2.238,19.504C1.827,19.504 1.488,19.165 1.488,18.754L1.488,2.254C1.488,1.843 1.827,1.504 2.238,1.504L12.866,1.504C13.065,1.504 13.256,1.583 13.397,1.723L16.27,4.595C16.411,4.735 16.49,4.926 16.49,5.125C16.49,5.125 16.49,8.254 16.49,8.254C16.49,8.668 16.826,9.004 17.24,9.004C17.654,9.004 17.99,8.668 17.99,8.254L17.99,5.125C17.99,4.528 17.752,3.955 17.33,3.533C17.33,3.533 14.457,0.662 14.457,0.662C14.035,0.241 13.462,0.004 12.866,0.004C12.866,0.004 2.238,0.004 2.238,0.004C1.004,0.004 -0.012,1.02 -0.012,2.254C-0.012,2.254 -0.012,18.754 -0.012,18.754C-0.012,19.988 1.004,21.004 2.238,21.004L8.238,21.004C8.652,21.004 8.988,20.668 8.988,20.254C8.988,19.84 8.652,19.504 8.238,19.504ZM8.458,6.534L10.177,8.254C10.177,8.254 8.458,9.974 8.458,9.974C8.165,10.266 8.165,10.742 8.458,11.034C8.75,11.327 9.226,11.327 9.518,11.034L11.768,8.784C12.061,8.491 12.061,8.017 11.768,7.724L9.518,5.474C9.226,5.181 8.75,5.181 8.458,5.474C8.165,5.766 8.165,6.242 8.458,6.534ZM5.458,5.474L3.208,7.724C2.915,8.017 2.915,8.491 3.208,8.784L5.458,11.034C5.75,11.327 6.226,11.327 6.518,11.034C6.811,10.742 6.811,10.266 6.518,9.974L4.799,8.254C4.799,8.254 6.518,6.534 6.518,6.534C6.811,6.242 6.811,5.766 6.518,5.474C6.226,5.181 5.75,5.181 5.458,5.474Z"/>
    </symbol>

    <symbol id="layermanagement-deactivate">
        <path d="M12,4.501C7.769,4.435 3.375,7.353 0.624,10.381C0.623,10.381 0.622,10.382 0.622,10.383C-0.201,11.296 -0.201,12.7 0.622,13.613C0.622,13.614 0.623,13.614 0.624,13.615C3.317,16.581 7.703,19.569 12.009,19.498C16.303,19.565 20.686,16.579 23.379,13.615C23.38,13.615 23.381,13.614 23.381,13.613C24.204,12.7 24.204,11.296 23.381,10.383C23.38,10.382 23.38,10.381 23.379,10.38C20.623,7.35 16.225,4.431 11.991,4.501L12,4.501ZM11.987,6.001C11.996,6.001 12.004,6.001 12.013,6.001C15.839,5.936 19.776,8.649 22.267,11.388C22.578,11.733 22.578,12.263 22.267,12.608C19.831,15.289 15.904,18.064 12.013,17.998C12.004,17.998 11.996,17.998 11.987,17.998C8.096,18.064 4.17,15.289 1.736,12.609C1.425,12.263 1.425,11.733 1.736,11.388C4.224,8.649 8.161,5.936 11.987,6.001Z"/>
        <path d="M16.5,12L16.5,11.998C16.5,9.53 14.469,7.499 12.001,7.499L12,7.499C9.531,7.499 7.5,9.53 7.5,11.999C7.5,14.468 9.531,16.499 12,16.499C14.468,16.499 16.499,14.468 16.5,12ZM15,11.998L15,12C15,13.645 13.645,14.999 12,14.999C10.354,14.999 9,13.645 9,11.999C9,10.353 10.354,8.999 12,8.999L12.001,8.999C13.646,8.999 15,10.353 15,11.998Z"/>
    </symbol>

    <symbol id="layermanagement-show-geojson">
      <path d="M6.2613423 18.515484c.8265246 0 1.4966041-.670079 1.4966041-1.496604 0-.826525-.6700795-1.496605-1.4966041-1.496605s-1.4966043.67008-1.4966043 1.496605.6700797 1.496604 1.4966043 1.496604z" />
      <path d="M12.016418 15.64493c.259544-.278169.42304-.632299.466541-1.010373.04336-.377944-.03565-.76001-.225488-1.089661-.18997-.329785-.48051-.589994-.829186-.742316-.348811-.152322-.737129-.188772-1.10802-.103888l-1.406807.326193c-.1116139.02608-.2290802.0085-.3280556-.04922-.099109-.0576-.1724088-.151121-.2047354-.261006l-.4241044-1.388862c-.1089528-.365305-.3328448-.685646-.638418-.913394-.3055735-.227749-.6765982-.35067-1.0577335-.35067-.3811352 0-.752027.122921-1.0576004.35067-.3057061.227748-.5295983.548089-.638551.913394l-.4230402 1.387785c-.033391.109212-.1066914.201809-.2051344.259412-.098577.05773-.215112.07622-.3265923.05188L2.203616 12.69669c-.3708918-.08488-.7592108-.04842-1.107966.10389-.3487022.152321-.639336.41253-.8291854.742315-.1898359.329653-.2688832.711719-.2254883 1.08966.0433822.378078.2069039.732207.4665147 1.010377l.9857367 1.061591c.077956.08541.1211919.196752.1211919.312357 0 .115604-.043235.226952-.1211919.312224l-.9867343 1.06465c-.2588793.278436-.4217497.632434-.4647588 1.01011-.042996.37781.0361307.759343.2258076 1.088862.1896763.329385.479911.589463.8281609.741917.3483031.152587.7362229.189436 1.1069817.105363l1.406808-.326192c.1116128-.02608.228947-.0085.3280556.04922.099109.05774.1722756.151125.2047354.261008l.42304 1.388849c.1094856.364772.333643.684447.6392165.911663.3054403.227218.6760659.350007 1.056935.350007.3807363 0 .7513619-.122789 1.0569351-.350007.3055734-.227216.5295984-.546891.6392163-.911663l.4230403-1.388847c.032327-.109755.1054931-.203005.2043363-.260609.098843-.05774.21591-.07543.3273903-.04962l1.4078714.326193c.370759.08407.758677.04722 1.106955-.105362.348144-.152455.638419-.412532.828122-.741918.189702-.32952.268856-.711052.225754-1.088862-.04296-.377676-.2058-.731673-.464678-1.010109l-.985766-1.062644c-.07795-.08527-.121191-.196619-.121191-.312225 0-.115604.04324-.226953.121191-.312357zm-5.7549427 4.367157c-.59199 0-1.170677-.1756-1.6630265-.504454-.4922165-.328853-.8758793-.796328-1.1024319-1.343352-.2265526-.546891-.2857517-1.148728-.1702804-1.729409.1154712-.580549.4005579-1.113872.819208-1.532523.4186499-.41865.9519733-.703738 1.5325226-.819208.5806825-.115471 1.1825169-.05614 1.7294094.170414.5468924.226419 1.0143652.610081 1.3433519 1.102297.3288536.49235.5044554 1.071038.5044554 1.663028 0 .793798-.3154176 1.555138-.8766775 2.116532-.5613928.561258-1.3227321.876675-2.116531.876675zm8.4095857-7.814268.01797-.0169c.137287-.137421.215776-.322601.219235-.516695.0033-.194226-.06878-.382067-.201276-.524012l-2.024345-2.1690708c-.04336-.046029-.06745-.1068248-.06745-.1701473 0-.06319.02407-.1239854.06745-.1700142l2.02341-2.1690785c.13675-.1428756.211248-.334042.207521-.5318599-.003843-.1976847-.08568-.3859243-.227881-.5233458-.142079-.1375546-.332845-.2132494-.530665-.2104557-.197682.00265-.386321.083544-.52454.2249561l-.01797.019024-2.659968 2.8504656c-.129433.1384858-.201402.320872-.201402.5103089 0 .1895698.07198.3719559.201409.5104413l2.659966 2.8504653c.135691.145139.3234.230411.521881.237062.198483.0068.391513-.06558.536651-.201143z" />
      <path d="M23.386884 3.0186473 20.977286.6111099c-.18518-.1854857-.405082-.332685-.647066-.433177-.242117-.100492-.501662-.1523078-.763733-.152494H8.0067152c-.529199 0-1.0367142.210243-1.4109318.5844605-.3742175.3742177-.5845401.8817859-.5845401 1.4110118v6.3426751c-.0009313.06013.020354.1185311.059731.1638948.039378.045496.094185.074897.1537844.082478.4911523.059998.97552.1661564 1.4467174.3172801.037515.014501.077956.019554.1178659.0149.039777-.00479.077956-.019157.1109485-.042037.033125-.022749.06013-.053345.078621-.088997.01849-.035518.028069-.075162.027804-.1153383V2.5197792c0-.1323131.052546-.2591985.1462018-.3527462.09352-.093561.2204329-.1461218.3526662-.1461218H19.360952c.132101.0000265.258746.052414.352268.1456694l2.117197 2.1162649c.04616.046562.08274.1017699.107627.1625646.02475.060796.03737.1258477.03699.1915651V17.984689c0 .132365-.05254.259144-.146069.352798-.09352.09352-.220434.14607-.352798.14607h-7.357303c-.03845.000398-.07622.0097-.110547.02727-.03419.01756-.06385.0427-.08674.07371-.02275.031-.03819.06679-.04471.104696-.0067.03779-.0043.07675.0066.113605.114271.449246.130371.917916.04696 1.373949-.0077.03579-.007.07291.0015.108559.0085.03551.02474.0689.04763.09751.02288.02862.05188.05175.08474.06785.03286.01609.0689.02475.105633.02528h7.805222c.5292 0 1.036847-.21019 1.411065-.584407.374218-.374217.584407-.881733.584407-1.411065V4.4303776c.000135-.2620721-.051348-.5216166-.15152-.7638669-.100175-.2422504-.247039-.4624175-.43222-.6478634Z" />
      <path d="M16.274622 11.140217c-.136756.142877-.211386.334043-.207529.531728.0038.197818.08568.385925.227883.523479.142078.137423.332843.213116.53053.210455.197817-.0027.386455-.08368.524677-.224955l.01702-.01903 2.660896-2.8495329c.129307-.1388851.201276-.3215374.201276-.5113732 0-.1897031-.07198-.3724882-.201276-.5112401l-2.659957-2.8495313c-.135691-.1451374-.323397-.2304107-.521882-.2371951-.198481-.00666-.391512.065718-.536649.2012765-.07409.065585-.134096.1456695-.176267.2351998-.04217.089663-.06557.1869091-.0689.2858845-.0034.098843.01343.1974188.04936.2897425.03606.09219.09032.1761339.159906.2467735l2.02434 2.1690785c.04323.046028.06745.1068246.06745.1700142 0 .06319-.02422.1241183-.06745.1701472z" />
    </symbol>
</svg>
