<svg viewBox="0 0 220 50" xmlns="http://www.w3.org/2000/svg" xml:space="preserve" style="fill-rule:evenodd;clip-rule:evenodd;stroke-linejoin:round;stroke-miterlimit:2"><path style="fill:#f33" d="M12.9.1h25.8v7H12.9zM4.7 14.2h39.9v7H4.7zM0 28.2h35.2v7H0zM9.4 42.3h30.5v7H9.4z"/><path d="m62.8 5.3-4.3 15.1c-.4 1.5-1.5 1.8-2.4 1.8-.9 0-1.9-.3-2.4-1.8L49.5 5.3v-.1c0-.2.2-.4.4-.4h1.3c.2 0 .4.2.4.3l4 14.8c.1.3.2.5.5.5.2 0 .3-.2.4-.5l4.1-14.8c0-.2.2-.3.4-.3h1.4c.2 0 .4.2.4.4v.1ZM67.2 22H66c-.2 0-.4-.2-.4-.5V5.2c0-.2.2-.4.4-.4h1.3c.2 0 .4.2.4.4v16.3c0 .2-.2.5-.5.5ZM82.7 22h-1.5c-.3 0-.4 0-.6-.3l-4.2-6.9h-.6c-.8 0-1.3 0-2.6-.1v6.8c0 .2-.2.5-.4.5h-1.3c-.2 0-.4-.2-.4-.5V5.3c0-.3.1-.5.6-.5 1-.1 2.7-.2 4.1-.2 3.7 0 6.5 1.2 6.5 5v.2c0 2.6-1.5 4.1-3.6 4.7l4.2 7c0 .1.1.1.1.2s-.1.3-.3.3ZM80.3 9.6c0-2.3-1.5-3.1-4.4-3.1-.7 0-2 0-2.6.1V13h2.6c2.9 0 4.4-.7 4.4-3.2v-.2ZM96.1 6.5h-4.5v15c0 .2-.2.5-.4.5h-1.3c-.2 0-.4-.2-.4-.5v-15H85c-.3 0-.5-.1-.5-.4v-1c0-.2.2-.4.5-.4h11.2c.3 0 .4.2.4.4v1c-.1.3-.3.4-.5.4ZM105.1 22.1c-3.8 0-5.9-2-5.9-6.4V5.2c0-.2.2-.4.4-.4h1.3c.2 0 .4.2.4.4v10.5c0 3 .9 4.6 3.8 4.6s3.8-1.6 3.8-4.6V5.2c0-.2.2-.4.4-.4h1.3c.2 0 .4.2.4.4v10.5c0 4.4-2.2 6.4-5.9 6.4ZM123.8 22c-.9.1-3.2.1-4.5.1-3.2 0-4.9-1.2-4.9-4.3V8.9c0-3.1 1.7-4.3 4.9-4.3 1.4 0 3.5 0 4.5.1.1 0 .2.2.2.3v1.2c0 .2-.1.3-.3.3h-4.5c-2.5 0-2.9.6-2.9 2.4v3.2h7.1c.3 0 .5.2.5.5v.9c0 .3-.2.5-.5.5h-7.1v3.9c0 1.8.4 2.4 2.9 2.4h4.5c.2 0 .3.1.3.3v1.2s0 .2-.2.2ZM136.4 21.9c-.6.1-2.3.2-4.5.2-2.5 0-4.9-.5-4.9-4.3V5.2c0-.3.2-.5.5-.5h1.2c.3 0 .5.2.5.5v12.6c0 1.8.4 2.4 2.9 2.4h4.5c.2 0 .3.1.3.3v1.1c-.3.1-.4.3-.5.3ZM148.3 21.9c-.6.1-2.3.2-4.5.2-2.5 0-4.9-.5-4.9-4.3V5.2c0-.3.2-.5.5-.5h1.2c.3 0 .5.2.5.5v12.6c0 1.8.4 2.4 2.9 2.4h4.5c.2 0 .3.1.3.3v1.1c-.2.1-.3.3-.5.3ZM160.3 22c-.9.1-3.2.1-4.5.1-3.2 0-4.9-1.2-4.9-4.3V8.9c0-3.1 1.7-4.3 4.9-4.3 1.4 0 3.5 0 4.5.1.1 0 .2.2.2.3v1.2c0 .2-.1.3-.3.3h-4.5c-2.5 0-2.9.6-2.9 2.4v3.2h7.1c.3 0 .5.2.5.5v.9c0 .3-.2.5-.5.5h-7.1v3.9c0 1.8.4 2.4 2.9 2.4h4.5c.2 0 .3.1.3.3v1.2s-.1.2-.2.2ZM167.5 22.1c-1.6 0-2.8-.2-3.8-.3-.4-.1-.4-.2-.4-.4v-.9c0-.3.2-.4.4-.4h.1c1.1.1 2.8.1 3.8.1 2.8 0 3.5-1.1 3.5-2.7 0-1.2-.7-1.8-2.8-3.1L166 13c-2.1-1.3-3.2-2.5-3.2-4.3 0-2.8 2-4.1 5.5-4.1 1.4 0 3.2.1 4 .3.2 0 .4.2.4.4v1c0 .2-.2.4-.4.4-1-.1-2.6-.1-4-.1-2.3-.1-3.3.4-3.3 2.1 0 1.1.8 1.7 2.5 2.8l2.1 1.3c2.7 1.6 3.6 2.9 3.6 4.7.1 2.2-1.1 4.6-5.7 4.6ZM63.7 28.5l-5.5 7.8 5.5 8.3c.1.1.1.2.1.3 0 .1-.1.2-.3.2h-4c-.3 0-.4-.1-.5-.3l-4.7-7.7v7.5c0 .3-.2.5-.5.5h-3c-.3 0-.5-.2-.5-.5V28.4c0-.3.2-.4.5-.4h3c.3 0 .5.2.5.4v7.4l5.1-7.5c.1-.2.3-.3.5-.3h3.5c.3 0 .4.1.4.3 0 0-.1.1-.1.2ZM79.7 45.2h-3.2c-.2 0-.4-.2-.5-.4l-.8-3.8h-4.8l-.8 3.8c0 .2-.2.4-.5.4h-3.2c-.2 0-.4-.1-.4-.4v-.1L69 30.3c.5-2.2 2.2-2.6 3.8-2.6 1.6 0 3.3.3 3.8 2.6l3.5 14.4v.1c0 .2-.1.4-.4.4Zm-6.6-13.8c0-.2-.1-.3-.3-.3-.2 0-.3.1-.3.3l-1.4 6.4h3.5l-1.5-6.4ZM95.3 45.2h-3.5c-.3 0-.3-.2-.5-.5l-3.1-5.9h-1.9v5.9c0 .3-.2.5-.5.5h-3c-.3 0-.5-.2-.5-.5V29.1c0-.8.3-1 1-1.1 1.1-.2 3-.3 4.7-.3 3.9 0 7 1.3 7 5.4v.3c0 2.5-1.3 4-3 4.6l3.5 6.5c0 .1.1.2.1.3.1.2 0 .4-.3.4Zm-4.2-12.1c0-1.4-1.1-2.1-3-2.1-.3 0-1.5 0-1.8.1v4.5h1.6c2.4 0 3.2-.6 3.2-2.2v-.3ZM109.1 31.2h-3.8v13.5c0 .3-.2.5-.5.5h-3c-.3 0-.5-.2-.5-.5V31.2h-3.8c-.3 0-.5-.2-.5-.4v-2.4c0-.3.2-.4.5-.4H109c.3 0 .5.2.5.4v2.4c.1.2-.1.4-.4.4ZM121.9 45.1c-.8.1-2 .3-4.5.3-3 0-5.6-.8-5.6-5v-7.7c0-4.2 2.7-5 5.7-5 2.5 0 3.7.2 4.5.3.3 0 .5.2.5.5v2.2c0 .3-.2.5-.5.5h-4.7c-1.1 0-1.5.4-1.5 1.6v2.1h6c.3 0 .5.2.5.5v2.2c0 .3-.2.5-.5.5h-6v2.5c0 1.2.4 1.6 1.5 1.6h4.7c.3 0 .5.2.5.5v2.2c-.1 0-.3.1-.6.2ZM137.9 45.2h-2.3c-.5 0-.8-.1-1.2-.7l-5.3-9.1c-.1-.1-.1-.2-.2-.2s-.1 0-.1.2v9.4c0 .3-.2.5-.5.5h-2.7c-.3 0-.5-.2-.5-.5v-16c0-.5.4-.9.9-.9h2.3c.5 0 .7.2 1 .7l5.5 9.6c.1.1.1.2.2.2 0 0 .1 0 .1-.2v-9.8c0-.3.2-.4.5-.4h2.7c.3 0 .5.2.5.4v15.9c0 .5-.4.9-.9.9ZM152.1 31.1h-4.7c-1.1 0-1.5.4-1.5 1.6v2.1h6c.3 0 .5.2.5.5v2.2c0 .3-.2.5-.5.5h-6v6.8c0 .3-.2.5-.5.5h-3c-.3 0-.5-.2-.5-.5v-12c0-4.2 2.7-5 5.7-5 2.5 0 3.7.2 4.5.3.3 0 .5.2.5.5v2.2c0 .1-.2.3-.5.3ZM161.8 45.4c-3.8 0-6.9-2.1-6.9-7.4v-2.8c0-5.4 3-7.4 6.9-7.4 3.9 0 6.9 2.1 6.9 7.4V38c0 5.3-3.1 7.4-6.9 7.4Zm2.9-10.2c0-2.8-.9-4-2.9-4s-2.9 1.2-2.9 4V38c0 2.8.9 4 2.9 4s2.9-1.2 2.9-4v-2.8ZM184.4 45.2h-3.5c-.3 0-.3-.2-.5-.5l-3.1-5.9h-1.9v5.9c0 .3-.2.5-.5.5h-3c-.3 0-.5-.2-.5-.5V29.1c0-.8.3-1 1-1.1 1.1-.2 3-.3 4.7-.3 3.9 0 7 1.3 7 5.4v.3c0 2.5-1.3 4-3 4.6l3.5 6.5c0 .1.1.2.1.3.1.2 0 .4-.3.4Zm-4.2-12.1c0-1.4-1.1-2.1-3-2.1-.3 0-1.5 0-1.8.1v4.5h1.6c2.4 0 3.2-.6 3.2-2.2v-.3ZM193.5 45.4c-3.7 0-6.7-1.4-6.7-6.7V28.4c0-.3.2-.4.5-.4h3c.3 0 .5.2.5.4v10.3c0 2.4.6 3.4 2.7 3.4s2.7-1 2.7-3.4V28.4c0-.3.2-.4.5-.4h3c.3 0 .5.2.5.4v10.3c0 5.3-3 6.7-6.7 6.7ZM218.6 45.2h-3.1c-.2 0-.4-.2-.4-.5V35c0-.2-.1-.2-.1-.2-.1 0-.1 0-.2.2l-2.1 3.8c-.2.3-.4.4-.7.4h-1.9c-.3 0-.5-.1-.7-.4l-2.1-3.8c-.1-.1-.1-.2-.2-.2 0 0-.1 0-.1.2v9.7c0 .3-.2.5-.4.5h-3.1c-.2 0-.4-.1-.4-.3V28.7c0-.5.3-.8.8-.8h2.2c.5 0 .8.2 1 .6l3.5 6.6c.1.2.2.3.3.3.1 0 .2-.1.3-.3l3.5-6.6c.2-.4.5-.6 1-.6h2.2c.5 0 .8.3.8.8v16.1c.3.3.1.4-.1.4Z" style="fill:#f33;fill-rule:nonzero"/></svg>